<?xml version="1.0" encoding="utf-8"?>
<!-- Generator: Adobe Illustrator 24.0.1, SVG Export Plug-In . SVG Version: 6.00 Build 0)  -->
<svg version="1.1" id="레이어_1" xmlns="http://www.w3.org/2000/svg" xmlns:xlink="http://www.w3.org/1999/xlink" x="0px"
	 y="0px" viewBox="0 0 312.84 70.89" style="enable-background:new 0 0 312.84 70.89;" xml:space="preserve">
<style type="text/css">
	.st0{fill:#FF143C;}
</style>
<g>
	<g>
		<rect x="144.54" class="st0" width="23.08" height="70.89"/>
		<path class="st0" d="M218.01,31.47L194.96,1.98C193.99,0.73,192.49,0,190.91,0h-14.89v70.89h23.08V39.73l22.79,29.18
			c0.97,1.25,2.47,1.98,4.05,1.98h15.13V0h-23.08V31.47z"/>
		<path class="st0" d="M287.1,50.18h-14.79V20.71h29.22c2.14,0,4.06-1.33,4.82-3.34L312.84,0h-63.6v70.89h63.6V30.46H287.1V50.18z"
			/>
		<path class="st0" d="M114.86,3.46l-11.85,34.15L91.17,3.46C90.45,1.39,88.5,0,86.31,0H64.07l27.42,70.89h23.06L141.97,0h-22.24
			C117.53,0,115.58,1.39,114.86,3.46z"/>
		<path class="st0" d="M55.03,0H0v22.4h21.8v48.48h23.08V22.4h22.34l-7.4-19.12C59.06,1.31,57.15,0,55.03,0z"/>
	</g>
</g>
</svg>
